{"accessors" : [{"bufferView" : 0, "byteOffset" : 0, "componentType" : 5123, "count" : 38289, "type" : "SCALAR", "max" : [38288], "min" : [0]}, {"bufferView" : 1, "byteOffset" : 0, "componentType" : 5126, "count" : 38289, "type" : "VEC3", "max" : [62731.2734375, -105591.5625, 2759.32861328125], "min" : [51699.84765625, -114070.078125, 0], "name" : "POSITION"}, {"bufferView" : 1, "byteOffset" : 12, "componentType" : 5126, "count" : 38289, "type" : "VEC3", "max" : [1.0000044107437134, 1.0000044107437134, 1.0000044107437134], "min" : [-1.0000044107437134, -1.0000044107437134, -1.0000044107437134], "name" : "NORMAL"}], "asset" : {"generator" : "Aspose.3D 22.10", "version" : "2.0"}, "buffers" : [{"uri" : "data:application/octet-stream;base64,", "byteLength" : 995524}], "bufferViews" : [{"buffer" : 0, "byteOffset" : 0, "byteLength" : 76580, "target" : 34963}, {"buffer" : 0, "byteOffset" : 76584, "byteLength" : 918936, "byteStride" : 24, "target" : 34962}], "meshes" : [{"primitives" : [{"attributes" : {"POSITION" : 1, "NORMAL" : 2}, "indices" : 0, "mode" : 4}], "name" : "Untitled-554b8f6d"}], "nodes" : [{"mesh" : 0, "name" : "Untitled-554b8f6d"}], "scene" : 0, "scenes" : [{"nodes" : [0]}]}